<svg t="1736410355375" class="icon" viewBox="0 0 1331 1024" version="1.1" xmlns="http://www.w3.org/2000/svg" p-id="1471" width="200" height="200"><path d="M0 0h589.824v46.7968C554.3936 51.2 529.5104 58.368 516.096 68.608c-13.824 10.0352-20.6848 25.8048-20.6848 47.4112 0 30.6176 22.8352 95.5392 68.608 194.8672 45.6704 99.2256 109.8752 223.5392 192.7168 372.736 86.4256-180.5312 145.92-310.6816 177.8688-390.4512 31.9488-80.0768 47.9232-134.8608 47.9232-164.864 0-24.8832-8.192-43.7248-24.4736-56.1152C941.568 59.5968 914.432 51.2 876.032 47.4112V0H1331.2v47.4112c-44.6464 3.072-81.8176 16.2816-111.8208 39.1168-29.696 23.2448-64.1024 69.632-102.7072 140.0832a9512.1408 9512.1408 0 0 0-173.2608 339.456 14456.32 14456.32 0 0 0-194.56 417.28c-31.0272 53.248-129.024 55.0912-155.9552 0-35.84-69.0176-84.7872-163.84-146.8416-285.2864C224.256 264.3968 77.9264 47.4112 7.9872 47.4112H0V0z" fill="#00C356" p-id="1472"></path></svg>